<svg width="68" height="68" viewBox="0 0 68 68" fill="none" xmlns="http://www.w3.org/2000/svg">
<circle cx="34" cy="34" r="34" fill="#EAB308"/>
<path d="M30.8583 50.6631C31.8683 51.4959 32.9217 52.2571 34 53C35.0807 52.267 36.1289 51.4873 37.1417 50.6631C38.83 49.2777 40.4189 47.7755 41.8967 46.1676C45.3033 42.445 49 37.0484 49 30.9905C49 29.022 48.612 27.0726 47.8582 25.2539C47.1044 23.4352 45.9995 21.7826 44.6066 20.3906C43.2137 18.9986 41.5601 17.8944 39.7403 17.1411C37.9204 16.3877 35.9698 16 34 16C32.0302 16 30.0796 16.3877 28.2597 17.1411C26.4399 17.8944 24.7863 18.9986 23.3934 20.3906C22.0005 21.7826 20.8956 23.4352 20.1418 25.2539C19.388 27.0726 19 29.022 19 30.9905C19 37.0484 22.6967 42.4433 26.1033 46.1676C27.581 47.7761 29.1699 49.2772 30.8583 50.6631ZM34 36.4038C32.5634 36.4038 31.1857 35.8335 30.1698 34.8183C29.154 33.8031 28.5833 32.4262 28.5833 30.9905C28.5833 29.5549 29.154 28.178 30.1698 27.1628C31.1857 26.1476 32.5634 25.5773 34 25.5773C35.4366 25.5773 36.8143 26.1476 37.8302 27.1628C38.846 28.178 39.4167 29.5549 39.4167 30.9905C39.4167 32.4262 38.846 33.8031 37.8302 34.8183C36.8143 35.8335 35.4366 36.4038 34 36.4038Z" fill="white"/>
</svg>
